<svg width="140" height="140" viewBox="0 0 140 140" fill="none" xmlns="http://www.w3.org/2000/svg">
<path d="M21.5469 49.9516C21.5032 49.9516 21.4594 49.9516 21.4157 49.9406C21.3501 49.9297 19.7094 49.7438 16.9204 49.2406C13.8797 48.6828 11.8782 48.4531 11.8563 48.4531C11.2001 48.3766 10.7188 47.7859 10.7954 47.1188C10.8719 46.4625 11.4735 45.9813 12.1297 46.0578C12.2172 46.0688 14.2297 46.2984 17.3579 46.8672C20.0594 47.3594 21.6782 47.5453 21.6891 47.5453C22.3454 47.6219 22.8266 48.2125 22.7501 48.8797C22.6735 49.4922 22.1485 49.9516 21.5469 49.9516Z" fill="#888071"/>
<path d="M11.7907 54.775C11.1891 54.775 10.6641 54.3266 10.5985 53.7141C10.5802 53.5568 10.5932 53.3974 10.6367 53.2451C10.6801 53.0928 10.7533 52.9505 10.8518 52.8266C10.9504 52.7026 11.0725 52.5993 11.2111 52.5226C11.3497 52.4459 11.502 52.3974 11.6594 52.3797C11.6922 52.3797 14.7329 52.0188 16.275 51.7672C17.8719 51.5156 21.4594 50.9469 21.4594 50.9469L21.8313 53.3203L16.6579 54.1406C15.061 54.4031 12.0641 54.7531 11.9329 54.7641C11.8782 54.7641 11.8344 54.775 11.7907 54.775Z" fill="#888071"/>
<path d="M13.6829 59.8062C13.1579 59.8062 12.6766 59.4672 12.5235 58.9312C12.3375 58.2969 12.7094 57.6297 13.3547 57.4437L21.9735 54.9828C22.278 54.905 22.6009 54.9493 22.8732 55.1061C23.1456 55.2629 23.3459 55.52 23.4315 55.8224C23.5171 56.1248 23.4812 56.4487 23.3314 56.725C23.1816 57.0013 22.9298 57.2082 22.6297 57.3016L14.011 59.7625C13.9125 59.7844 13.7922 59.8062 13.6829 59.8062Z" fill="#888071"/>
<path d="M58.286 92.3234L46.4297 101.412C46.4297 101.412 46.8891 120.356 46.5828 121.122C46.2766 121.887 42.1203 126.667 42.5797 129.434C42.9407 131.589 44.5813 132.355 49.0438 132.519C53.5063 132.683 62.5953 130.67 62.5953 130.67L58.286 92.3234Z" fill="#B85C3E"/>
<path d="M93.0891 99.5531L84.3172 104.475C84.3172 104.475 85.5531 108.172 85.5531 113.411C85.5531 118.65 85.0938 121.931 84.7875 123.014C84.4813 124.097 81.9109 126.142 82.1734 129.117C82.2938 130.495 84.0219 131.578 87.0953 131.425C90.1688 131.272 94.6422 130.966 94.6422 130.966L99.1047 101.861L93.0891 99.5531Z" fill="#B85C3E"/>
<path d="M36.3781 30.4172C36.3781 30.4172 34.9453 25.386 36.1703 17.3797C37.4062 9.37346 39.4515 5.16252 41.4093 4.95471C43.3562 4.74689 47.0531 8.44377 49.9296 12.8625C52.8062 17.2813 55.1687 25.0797 55.1687 25.0797L36.3781 30.4172Z" fill="#FB8B02"/>
<path d="M69.8359 106.378C69.8359 106.378 69.9343 115.62 70.1422 119.722C70.35 123.823 70.1531 132.934 69.3218 133.941C68.0422 135.483 66.7515 135.527 63.9843 135.636C62.3328 135.702 64.4984 125.475 64.4984 125.059C64.4984 124.644 64.5969 100.111 64.5969 100.111L69.8359 106.378Z" fill="#FB8B02"/>
<path d="M42.4266 74.4625C42.4266 74.4625 39.9657 82.2609 40.5782 88.1125C41.1907 93.9641 44.5813 101.358 47.9719 104.333C51.3626 107.308 54.436 108.85 54.7422 109.572C55.0485 110.294 56.2844 120.455 55.8688 122.609C55.4532 124.764 52.4782 130.309 52.9922 132.464C53.5063 134.619 55.5407 135.975 60.7907 135.855C67.6157 135.702 67.2547 134.673 67.7688 130.419C68.1188 127.553 67.6704 107.734 67.6704 107.734C67.6704 107.734 71.8813 108.15 77.8313 107.734C83.7813 107.319 91.1751 104.65 91.1751 104.65C91.1751 104.65 95.386 117.786 93.9422 121.789C92.5094 125.792 90.1469 128.056 90.5516 130.823C90.9672 133.591 94.5547 134.827 98.9735 134.411C103.392 133.995 106.772 131.13 106.98 127.323C107.188 123.528 107.078 102.484 107.702 100.844C108.314 99.2031 110.578 93.5594 110.37 87.9047C110.163 82.25 109.758 79.9969 109.758 79.9969C109.758 79.9969 115.063 77.9734 119.974 74.2547C123.714 71.4219 126.525 67.6922 128.024 62.1359C130.484 53.0031 127.105 43.9688 120.324 40.8844C113.805 37.9203 107.384 39.0359 107.188 43.7609C106.991 48.4859 111.191 47.4578 114.373 48.6828C117.556 49.9188 121.144 55.5625 117.349 61.1078C113.553 66.6531 106.881 68.3922 104.825 68.6C102.769 68.8078 98.9735 65.625 91.0657 65.4172C83.1579 65.2094 71.7719 70.9625 71.4547 70.2406C71.1485 69.5188 82.7422 62.0266 83.5626 52.2813C84.3282 43.2469 82.436 39.0359 82.436 39.0359C82.436 39.0359 81.0032 23.7453 78.9469 16.5594C76.8907 9.37345 74.0469 4.03595 72.1985 4.14533C70.3501 4.24377 64.4001 10.7188 62.2454 13.9016C60.0907 17.0844 57.7282 22.2141 57.7282 22.2141C57.7282 22.2141 48.5407 21.875 44.4829 23.3406C40.786 24.675 36.5751 26.9281 33.9063 31.1391C31.2376 35.35 30.4172 37.811 29.1813 38.4235C27.9454 39.0359 22.0938 40.2719 21.5797 40.9938C21.0657 41.7156 19.7313 51.2641 20.0376 52.6969C20.3438 54.1297 20.5844 57.4766 22.2907 59.3688C24.2376 61.5234 29.6297 65.1656 33.8954 67.8891C38.0188 70.5141 42.0219 72.6141 42.4266 74.4625Z" fill="#FFB800"/>
<path d="M80.2594 84.5141C84.0547 84.4594 83.9563 79.8984 84.011 74.2437C84.0547 69.3 83.8579 66.3906 83.8579 66.3906C83.8579 66.3906 81.6813 66.6859 79.7563 67.4187C77.8532 68.1406 76.2125 68.8078 76.2125 68.8078V76.7594C76.2016 79.4828 76.5079 84.5687 80.2594 84.5141Z" fill="#FF9B31"/>
<path d="M86.9313 65.6797C86.9313 65.6797 86.9313 70.4484 86.986 74.5063C87.0406 78.8703 86.625 83.5953 90.9891 83.5406C94.7406 83.4969 94.7406 78.7172 94.7844 73.325C94.8063 70.5031 94.8828 65.6797 94.8828 65.6797C94.8828 65.6797 93.0344 65.3188 90.825 65.3734C89.086 65.4172 86.9313 65.6797 86.9313 65.6797Z" fill="#FF9B31"/>
<path d="M49.0109 44.8657C48.2124 46.8016 46.4952 49.5688 43.6624 48.8469C41.8468 48.3875 41.7156 44.4828 42.7765 42.1641C44.0343 39.4297 45.7078 38.1938 47.6656 38.4235C49.8203 38.686 50.0281 42.3828 49.0109 44.8657Z" fill="#2C312C"/>
<path d="M30.264 44.275C30.2093 43.0391 27.0265 42.175 24.5656 41.2453C22.4765 40.4687 21.3281 40.425 20.7703 40.9391C20.2125 41.4531 19.5343 42.7875 19.2281 44.8437C18.9218 46.9 19.0312 50.3781 19.5343 52.5437C20.0484 54.7531 20.8687 57.5203 24.5109 58.9641C27.639 60.2 29.4875 58.5047 30.8218 57.575C32.5172 56.4047 31.7843 53.6266 29.389 55.0594C27.5953 56.1422 26.3593 56.4484 24.9703 55.4203C23.0672 54.0094 22.6078 49.8312 22.7609 49.4703C23.4281 47.9062 26.0968 47.5234 27.1797 47.1078C28.2625 46.6922 30.3187 45.3578 30.264 44.275Z" fill="#2C312C"/>
<path d="M51.7781 55.1797H51.6906C51.6578 55.1797 48.2015 54.9281 46.0468 54.8734L39.889 54.7203C39.889 54.7203 38.5984 54.8297 38.5984 53.5609C38.5984 52.2156 39.9437 52.4234 39.9437 52.4234L46.1015 52.5766C48.3109 52.6313 51.7125 52.8719 51.8546 52.8828C52.489 52.9266 52.9593 53.4844 52.9156 54.1078C52.8718 54.7203 52.3687 55.1797 51.7781 55.1797Z" fill="#888071"/>
<path d="M49.8203 62.6719C49.6563 62.6719 49.4813 62.6391 49.3282 62.5625C49.3063 62.5516 46.5828 61.25 44.1219 60.4078C41.5625 59.5437 38.6969 58.6141 38.6969 58.6141C38.0953 58.4172 37.7563 57.7719 37.9532 57.1703C38.15 56.5687 38.7953 56.2297 39.3969 56.4266C39.3969 56.4266 42.2844 57.3562 44.8547 58.2312C47.4578 59.1172 50.2032 60.4297 50.3235 60.4953C50.8922 60.7687 51.1328 61.4578 50.8594 62.0265C50.6625 62.4312 50.2469 62.6719 49.8203 62.6719Z" fill="#888071"/>
<path d="M44.2313 66.9375C44.0125 66.9375 43.7828 66.8719 43.5859 66.7406C43.5641 66.7297 41.6391 65.4172 40.3484 64.6187C39.0031 63.7984 36.5859 62.2453 36.5859 62.2453C36.5859 62.2453 35.5031 61.6109 36.2031 60.6047C36.9031 59.5984 37.8219 60.2984 37.8219 60.2984C37.8219 60.2984 40.2281 61.8297 41.5516 62.65C42.8969 63.4703 44.8 64.7828 44.8875 64.8375C45.4125 65.1984 45.5438 65.9094 45.1828 66.4344C44.9531 66.7625 44.5922 66.9375 44.2313 66.9375Z" fill="#888071"/>
<path d="M70.3828 13.4859C69.8578 13.3 66.4563 17.2594 64.761 21.1859C63.0657 25.1125 62.4532 27.2672 62.6063 27.9562C62.6719 28.2625 64.6297 29.9578 67.5282 32.2656C70.536 34.65 72.45 36.1156 73.3031 36.039C74.1453 35.9625 74.386 29.4219 73.686 23.4937C72.986 17.5656 71.225 13.7922 70.3828 13.4859Z" fill="#FED0AB"/>
</svg>
