<svg width="140" height="140" viewBox="0 0 140 140" fill="none" xmlns="http://www.w3.org/2000/svg">
<path d="M31.6532 69.0703C31.6532 69.0703 29.0391 76.6172 30.5704 84.6234C32.1125 92.6297 34.2672 100.023 34.2672 100.023C34.2672 100.023 34.7266 115.73 34.2672 117.425C33.8079 119.12 30.2641 121.275 30.2641 124.359C30.2641 127.444 31.3907 131.337 37.0891 132.267C42.7875 133.197 47.4032 131.294 49.3063 128.986C52.0516 125.65 51.5157 123.287 51.5157 120.827C51.5157 118.366 51.6688 104.202 52.2813 102.036C52.8938 99.8812 53.8235 98.6453 55.5188 98.7984C57.2141 98.9515 59.0625 101.566 59.2157 106.498C59.3688 111.42 59.5219 120.05 59.3688 121.745C59.2157 123.441 57.6735 129.139 58.9094 131.447C60.1454 133.755 65.7344 135.997 70.0438 135.756C75.6875 135.45 79.0782 131.906 79.3844 129.139C79.6907 126.372 77.8422 120.05 77.8422 118.202C77.8422 116.353 79.9969 103.731 80.6094 102.955C81.2219 102.189 83.1032 102.353 87.2266 100.494C90.9782 98.7984 92.9797 97.1031 92.9797 97.1031C92.9797 97.1031 93.0782 108.041 92.925 109.266C92.7719 110.502 89.075 114.352 89.6875 117.272C90.3 120.192 93.9094 121.898 97.1251 122.194C102.561 122.708 107.855 118.497 109.233 114.8C110.622 111.103 109.998 106.487 109.692 104.027C109.386 101.566 109.386 92.9359 109.692 90.6281C109.998 88.3203 110.502 86.9203 110.698 85.7062C111.005 83.7047 110.928 81.4734 110.928 81.4734C110.928 81.4734 116.244 81.4734 119.394 79.3953C122.544 77.3171 125.858 73.6968 127.323 69.2343C128.756 64.8703 128.406 63.5359 127.17 63.3828C125.934 63.2297 120.4 70.9953 115.697 71.2359C108.227 71.6187 108.97 63.6125 103.272 58.7672C96.8516 53.2984 86.8438 52.6093 86.8438 52.6093C86.8438 52.6093 88.5719 46.1453 88.5938 41.3656C88.6704 20.4968 78.5094 13.4203 78.5094 13.4203C78.5094 13.4203 66.2922 4.32029 52.4344 4.93279C38.5766 5.54529 28.4157 16.5593 28.4157 16.5593L20.7922 50.2031C20.7922 50.2031 22.7172 56.6672 25.8016 61.3703C29.0391 66.2922 31.6532 69.0703 31.6532 69.0703Z" fill="#FFD2B1"/>
<path d="M22.0281 9.10001C10.7078 9.32969 4.72496 18.9766 4.54996 24.8828C4.45152 28.35 3.08433 53.55 17.0187 54.0641C22.6078 54.2719 26.764 47.7859 28.875 40.4359C31.5328 31.1719 31.4125 21.8859 31.7187 19.4141C32.2109 15.4656 33.0312 12.5672 33.0312 12.5672C33.0312 12.5672 31.6531 8.90313 22.0281 9.10001Z" fill="#865B52"/>
<path d="M82.6219 5.25003C94.9375 5.7094 99.1375 11.1672 100.33 14.3391C101.642 17.8063 102.791 30.1766 100.866 38.4344C99.3016 45.1719 96.9391 48.5953 91.3937 48.3657C86.3187 48.1578 83.7484 40.8407 79.9203 30.8875C76.2234 21.2625 73.3906 12.6438 72.9094 11.4078C72.2969 9.78909 70.9844 9.10003 70.9844 9.10003C70.9844 9.10003 73.4453 4.90003 82.6219 5.25003Z" fill="#865B52"/>
<path d="M68.5344 30.264C62.4531 30.6469 59.5437 37.4062 60.8344 44.1984C62.2234 51.5156 67.025 54.9828 73.0734 54.2062C79.6906 53.364 81.6922 45.8172 80.85 40.1187C80.0734 34.9344 77.1422 29.7172 68.5344 30.264Z" fill="#D27856"/>
<path d="M75.6875 42.6562C75.6875 45.85 73.9156 48.5187 71.1047 48.4422C67.2875 48.3328 66.2922 44.9531 66.3688 42.1094C66.4563 38.7844 68.4469 37.2094 71.2906 37.2859C73.8281 37.3406 75.6875 39.4625 75.6875 42.6562Z" fill="#060401"/>
<path d="M43.586 44.4172C43.586 47.7422 41.8141 50.5203 39.0031 50.4328C35.186 50.3234 34.1906 46.8015 34.2672 43.8375C34.3547 40.3703 36.7281 38.8937 38.9594 39.0578C41.486 39.2437 43.586 41.0922 43.586 44.4172Z" fill="#060401"/>
<path d="M58.2094 62.9891C58.2094 62.9891 64.9032 62.3 64.5969 57.4438C64.2907 52.5984 59.7516 52.2812 56.2078 52.3578C52.6641 52.4344 47.5891 54.2828 48.125 58.3625C48.661 62.4422 54.436 62.9781 54.436 62.9781C54.436 62.9781 54.425 65.9969 52.4344 66.2156C50.2797 66.4453 47.1953 63.1313 46.3532 62.2891C45.511 61.4469 44.1985 61.7531 43.7391 62.4422C43.2797 63.1313 43.586 64.6734 44.8985 65.9859C46.211 67.2984 49.2844 70.6016 52.3688 70.2953C55.4532 69.9891 55.5297 68.3703 56.7547 68.2938C57.9907 68.2172 57.9141 70.0656 60.9875 69.9891C63.1532 69.9344 67.5172 66.1281 68.3047 65.45C70.0766 63.9078 70.536 62.3656 69.7703 61.3703C69.0047 60.375 66.85 61.8297 65.6907 62.6828C64.5313 63.525 62.661 65.5156 60.8453 65.8438C57.8266 66.3797 58.2094 62.9891 58.2094 62.9891Z" fill="#060401"/>
<path d="M85.5422 55.7703C85.5422 55.7703 84.0875 58.9641 82.8735 61.5234C81.4079 64.6078 79.3079 67.2984 79.3079 67.2984C79.3079 67.2984 81.6813 83.5297 95.8016 82.1297C100.855 81.6266 104.683 77.6672 105.044 73.4672C105.656 66.3797 102.966 63.0656 98.7875 59.8281C92.0172 54.6 85.5422 55.7703 85.5422 55.7703Z" fill="#D27856"/>
<path d="M75.7641 81.1563C73.2594 83.4531 74.6047 87.7735 77.9188 88.2438C81.2329 88.7031 83.0157 85.9469 82.7641 83.8578C82.3922 80.6203 78.6188 78.5422 75.7641 81.1563Z" fill="#D27856"/>
<path d="M43.05 76.8906C43.05 76.8906 40.8406 82.95 45.511 90.5406C47.5016 93.7672 51.9313 95.5828 55.0594 95.4625C58.3625 95.3422 61.3485 94.1937 63.9078 91C67.9875 85.9141 66.8281 77.4484 66.8281 77.4484C66.8281 77.4484 60.3641 80.1062 54.436 79.9094C48.125 79.7125 43.05 76.8906 43.05 76.8906Z" fill="#D27856"/>
<path d="M34.989 123.266C33.3812 122.773 32.7359 125.267 32.6265 126.853C32.5171 128.439 32.5281 130.495 33.9609 131.009C35.3937 131.523 35.1093 128.472 35.2406 127.466C35.5031 125.53 36.6843 123.78 34.989 123.266Z" fill="#D27856"/>
<path d="M41.3 124.195C40.3375 124.152 39.3203 125.125 39.2 127.947C39.1016 130.309 39.2 132.256 40.5344 132.366C42.3282 132.508 41.825 130.211 41.9235 128.308C41.9672 127.225 43.3016 124.294 41.3 124.195Z" fill="#D27856"/>
<path d="M65.7891 127.269C64.2469 127.269 64.2031 129.019 64.2031 130.911C64.2031 132.814 63.8094 135.166 65.5375 135.373C67.6375 135.625 67.2328 132.803 67.2328 131.217C67.2219 129.839 67.4735 127.269 65.7891 127.269Z" fill="#D27856"/>
<path d="M72.7671 126.919C71.5312 127.17 71.6406 128.866 71.6843 130.922C71.739 132.978 71.4328 135.155 73.1718 134.98C74.6593 134.827 74.5609 132.409 74.5062 130.561C74.4625 128.964 74.6703 126.514 72.7671 126.919Z" fill="#D27856"/>
<path d="M93.9093 113.542C92.8484 113.334 91.6453 114.231 91.339 116.627C91.0875 118.683 91.1859 120.487 92.9797 120.881C93.8984 121.089 94.0625 118.727 94.1062 117.031C94.1609 115.566 95.2437 113.805 93.9093 113.542Z" fill="#D27856"/>
<path d="M99.7063 114.789C98.6891 114.625 97.6938 115.248 97.4313 117.797C97.2782 119.284 96.7313 121.953 98.5797 122.052C100.013 122.117 99.9032 119.766 100.034 118.541C100.242 116.605 101.38 115.073 99.7063 114.789Z" fill="#D27856"/>
</svg>
