<svg width="30" height="26" viewBox="0 0 30 26" fill="none" xmlns="http://www.w3.org/2000/svg">
<path d="M2.01382 5.66693C2.35305 4.84797 2.85025 4.10386 3.47706 3.47706C4.10385 2.85025 4.84797 2.35305 5.66693 2.01382C6.48588 1.6746 7.36363 1.5 8.25006 1.5C9.13649 1.5 10.0142 1.6746 10.8332 2.01382C11.6521 2.35305 12.3963 2.85025 13.0231 3.47706L15.0001 5.45406L16.9771 3.47706C18.2429 2.21118 19.9598 1.50002 21.7501 1.50002C23.5403 1.50002 25.2572 2.21118 26.5231 3.47706C27.7889 4.74294 28.5001 6.45984 28.5001 8.25006C28.5001 10.0403 27.7889 11.7572 26.5231 13.0231L15.0001 24.5461L3.47706 13.0231C2.85025 12.3963 2.35305 11.6521 2.01382 10.8332C1.6746 10.0142 1.5 9.13649 1.5 8.25006C1.5 7.36363 1.6746 6.48588 2.01382 5.66693Z" fill="#DC0B0B" stroke="#3F3F46" stroke-width="2" stroke-linecap="round" stroke-linejoin="round"/>
</svg>
