<svg xmlns="http://www.w3.org/2000/svg" fill="none" viewBox="0 6.9 26.61 24.16">
<path d="M14.5101 31.0602H21.7467C23.1194 31.0602 24.2701 30.5781 25.1607 29.6495C26.0514 28.7588 26.6083 27.5713 26.6083 26.2354V11.7253C26.6083 10.3894 26.0514 9.20189 25.1607 8.31126C24.2701 7.42064 23.0826 6.90051 21.7467 6.90051H14.5101V9.94408H21.7467C22.7857 9.94408 23.5648 10.7231 23.5648 11.7253V26.2354C23.5648 27.2376 22.7857 28.0535 21.7467 28.0535H14.5101V31.0602ZM0 16.106V21.8951C0 22.5636 0.556938 23.1194 1.22431 23.1194H7.97881V27.6841C7.97881 28.0926 8.16406 28.4263 8.53575 28.6116C8.68419 28.6484 8.86944 28.6484 8.94425 28.6484C9.20431 28.6484 9.42638 28.5736 9.61281 28.3883L18.3338 19.6673C18.6675 19.3336 18.6307 18.6651 18.3338 18.2946L9.61281 9.61039C9.31594 9.31351 8.94425 9.2767 8.53694 9.38714C8.16525 9.57239 7.98 9.86926 7.98 10.2778V14.8793H1.2255C0.556937 14.8793 0.0011875 15.4363 0.0011875 16.1036L0 16.106Z" fill="white"/>
</svg>