<svg width="38" height="38" viewBox="0 0 38 38" fill="none" xmlns="http://www.w3.org/2000/svg">
<g clip-path="url(#clip0_63_39)">
<path d="M0 11.7267V26.2367C0 27.5727 0.556937 28.7602 1.44756 29.6876C2.33819 30.5782 3.48887 31.0604 4.82481 31.0604H12.0982V28.0548H4.82481C3.82256 28.0548 3.04356 27.2378 3.04356 26.2367V11.7267C3.04356 10.7244 3.82256 9.94542 4.82481 9.94542H12.0982V6.90186H4.82481C3.48887 6.90186 2.33819 7.42198 1.44756 8.31261C0.556937 9.24004 0 10.3907 0 11.7267ZM7.97881 16.1062V21.8952C7.97881 22.5638 8.57256 23.1195 9.24112 23.1195H15.9576V27.6843C15.9576 28.0928 16.1809 28.4265 16.5514 28.6117C16.6998 28.6485 16.8482 28.6485 16.9231 28.6485C17.1831 28.6485 17.4052 28.5737 17.5916 28.3885L26.3126 19.6675C26.7211 19.3338 26.6843 18.6652 26.3126 18.2947L17.5916 9.61054C17.0715 9.05361 15.9588 9.38729 15.9588 10.2791V14.8807H9.24231C8.57375 14.8807 7.98 15.4376 7.98 16.105L7.97881 16.1062Z" fill="white"/>
</g>
<defs>
<clipPath id="clip0_63_39">
<rect width="38" height="38" fill="white"/>
</clipPath>
</defs>
</svg>
