<svg width="27" height="25" viewBox="0 0 27 25" fill="none" xmlns="http://www.w3.org/2000/svg">
<path d="M0 4.82481V19.3349C0 20.6708 0.556937 21.8583 1.44756 22.7857C2.33819 23.6764 3.48887 24.1585 4.82481 24.1585H12.0982V21.1529H4.82481C3.82256 21.1529 3.04356 20.3359 3.04356 19.3349V4.82481C3.04356 3.82256 3.82256 3.04356 4.82481 3.04356H12.0982V0H4.82481C3.48887 0 2.33819 0.520125 1.44756 1.41075C0.556937 2.33819 0 3.48888 0 4.82481ZM7.97881 9.20431V14.9934C7.97881 15.6619 8.57256 16.2177 9.24112 16.2177H15.9576V20.7824C15.9576 21.1909 16.1809 21.5246 16.5514 21.7099C16.6998 21.7467 16.8482 21.7467 16.9231 21.7467C17.1831 21.7467 17.4052 21.6719 17.5916 21.4866L26.3126 12.7656C26.7211 12.4319 26.6843 11.7634 26.3126 11.3929L17.5916 2.70869C17.0715 2.15175 15.9588 2.48544 15.9588 3.37725V7.97881H9.24231C8.57375 7.97881 7.98 8.53575 7.98 9.20313L7.97881 9.20431Z" fill="white"/>
</svg>
