<svg xmlns="http://www.w3.org/2000/svg" fill="none" viewBox="1.75 4.38 17.5 12.25">
<path d="M18.375 16.625H2.625C2.39294 16.625 2.17038 16.5328 2.00628 16.3687C1.84219 16.2046 1.75 15.9821 1.75 15.75C1.75 15.5179 1.84219 15.2954 2.00628 15.1313C2.17038 14.9672 2.39294 14.875 2.625 14.875H18.375C18.6071 14.875 18.8296 14.9672 18.9937 15.1313C19.1578 15.2954 19.25 15.5179 19.25 15.75C19.25 15.9821 19.1578 16.2046 18.9937 16.3687C18.8296 16.5328 18.6071 16.625 18.375 16.625Z" fill="white"/>
<path d="M18.375 11.375H2.625C2.39294 11.375 2.17038 11.2828 2.00628 11.1187C1.84219 10.9546 1.75 10.7321 1.75 10.5C1.75 10.2679 1.84219 10.0454 2.00628 9.88128C2.17038 9.71719 2.39294 9.625 2.625 9.625H18.375C18.6071 9.625 18.8296 9.71719 18.9937 9.88128C19.1578 10.0454 19.25 10.2679 19.25 10.5C19.25 10.7321 19.1578 10.9546 18.9937 11.1187C18.8296 11.2828 18.6071 11.375 18.375 11.375Z" fill="white"/>
<path d="M18.375 6.125H2.625C2.39294 6.125 2.17038 6.03281 2.00628 5.86872C1.84219 5.70462 1.75 5.48206 1.75 5.25C1.75 5.01794 1.84219 4.79538 2.00628 4.63128C2.17038 4.46719 2.39294 4.375 2.625 4.375H18.375C18.6071 4.375 18.8296 4.46719 18.9937 4.63128C19.1578 4.79538 19.25 5.01794 19.25 5.25C19.25 5.48206 19.1578 5.70462 18.9937 5.86872C18.8296 6.03281 18.6071 6.125 18.375 6.125Z" fill="white"/>
</svg>