<svg xmlns="http://www.w3.org/2000/svg" fill="none" viewBox="29.54 28.4 62.45 64.89">
<path d="M47.5962 56.1494C51.2568 54.6141 52.4819 49.215 50.3325 44.0901C48.1831 38.9652 43.4731 36.0553 39.8125 37.5906C36.1519 39.1259 34.9268 44.525 37.0762 49.6499C39.2256 54.7748 43.9355 57.6847 47.5962 56.1494Z" stroke="white" stroke-width="2" stroke-miterlimit="10"/>
<path d="M66.155 48.3657C69.8156 46.8304 71.0407 41.4313 68.8913 36.3064C66.7419 31.1816 62.0319 28.2716 58.3713 29.8069C54.7107 31.3422 53.4856 36.7413 55.635 41.8662C57.7844 46.9911 62.4944 49.901 66.155 48.3657Z" stroke="white" stroke-width="2" stroke-miterlimit="10"/>
<path d="M42.1235 80.2681C45.7841 78.7328 47.0092 73.3336 44.8598 68.2088C42.7104 63.0839 38.0004 60.174 34.3398 61.7092C30.6792 63.2445 29.4541 68.6437 31.6035 73.7685C33.7529 78.8934 38.4629 81.8034 42.1235 80.2681Z" stroke="white" stroke-width="2" stroke-miterlimit="10"/>
<path d="M87.195 61.3649C90.8557 59.8296 92.0808 54.4305 89.9313 49.3056C87.7819 44.1807 83.072 41.2708 79.4114 42.806C75.7507 44.3413 74.5256 49.7405 76.675 54.8653C78.8245 59.9902 83.5344 62.9002 87.195 61.3649Z" stroke="white" stroke-width="2" stroke-miterlimit="10"/>
<path d="M72.6131 67.4806C68.9779 65.9936 66.626 60.6388 61.3235 62.8627C56.0209 65.0866 58.2449 70.3891 56.7056 74.1523C55.1662 77.9155 47.2892 81.4343 49.9924 87.8796C51.528 91.5409 55.739 93.2634 59.4004 91.7278C62.4679 90.4413 68.0557 84.9801 70.2191 84.0728C72.3825 83.1654 80.1942 83.0068 83.2617 81.7202C86.9231 80.1846 88.6456 75.9736 87.11 72.3122C84.5603 66.2328 76.2484 68.9676 72.6131 67.4806Z" stroke="white" stroke-width="2" stroke-miterlimit="10"/>
</svg>