<svg width="66" height="73" viewBox="0 0 66 73" fill="none" xmlns="http://www.w3.org/2000/svg">
<path d="M43.3696 45.8782C45.4718 46.7412 48.1554 45.0551 49.3636 42.1121C50.5719 39.1691 49.8473 36.0837 47.7451 35.2206C45.643 34.3576 42.9594 36.0437 41.7511 38.9867C40.5428 41.9297 41.2675 45.0151 43.3696 45.8782Z" stroke="#34495E" stroke-width="2" stroke-miterlimit="10"/>
<path d="M54.0272 50.2537C56.1293 51.1167 58.8129 49.4306 60.0212 46.4876C61.2295 43.5446 60.5048 40.4592 58.4027 39.5961C56.3005 38.7331 53.6169 40.4192 52.4087 43.3622C51.2004 46.3052 51.925 49.3906 54.0272 50.2537Z" stroke="#34495E" stroke-width="2" stroke-miterlimit="10"/>
<path d="M31.3816 53.4103C33.4837 54.2734 36.1673 52.5872 37.3756 49.6442C38.5839 46.7013 37.8592 43.6158 35.7571 42.7528C33.6549 41.8898 30.9713 43.5759 29.7631 46.5189C28.5548 49.4619 29.2794 52.5473 31.3816 53.4103Z" stroke="#34495E" stroke-width="2" stroke-miterlimit="10"/>
<path d="M57.2642 64.0366C59.3664 64.8996 62.05 63.2135 63.2582 60.2705C64.4665 57.3275 63.7418 54.2421 61.6397 53.379C59.5376 52.516 56.854 54.2021 55.6457 57.1451C54.4374 60.0881 55.1621 63.1735 57.2642 64.0366Z" stroke="#34495E" stroke-width="2" stroke-miterlimit="10"/>
<path d="M48.8904 60.5987C48.0235 58.5241 49.2431 55.4061 46.1981 54.156C43.1531 52.9058 41.903 55.9508 39.7554 56.8483C37.6078 57.7457 32.9972 55.9755 31.4776 59.6767C30.6144 61.7793 31.6186 64.1825 33.7212 65.0457C35.4827 65.7689 39.9552 65.8259 41.1975 66.336C42.4399 66.8461 45.6622 69.9481 47.4237 70.6713C49.5263 71.5345 51.9295 70.5303 52.7927 68.4277C54.226 64.9366 49.7573 62.6732 48.8904 60.5987Z" stroke="#34495E" stroke-width="2" stroke-miterlimit="10"/>
<path d="M14.7767 12.9684C17.0286 13.273 19.1999 10.9642 19.6264 7.81158C20.0528 4.65893 18.5731 1.85624 16.3212 1.5516C14.0693 1.24696 11.898 3.55573 11.4715 6.70839C11.045 9.86104 12.5248 12.6637 14.7767 12.9684Z" stroke="#34495E" stroke-width="2" stroke-miterlimit="10"/>
<path d="M26.1935 14.5129C28.4454 14.8175 30.6166 12.5087 31.0431 9.35608C31.4696 6.20342 29.9898 3.40073 27.7379 3.09609C25.4861 2.79145 23.3148 5.10023 22.8883 8.25288C22.4618 11.4055 23.9416 14.2082 26.1935 14.5129Z" stroke="#34495E" stroke-width="2" stroke-miterlimit="10"/>
<path d="M5.07742 23.282C7.32931 23.5866 9.50058 21.2778 9.92707 18.1252C10.3536 14.9725 8.87379 12.1698 6.62189 11.8652C4.36999 11.5606 2.19873 13.8693 1.77224 17.022C1.34574 20.1746 2.82552 22.9773 5.07742 23.282Z" stroke="#34495E" stroke-width="2" stroke-miterlimit="10"/>
<path d="M32.8039 27.0328C35.0558 27.3375 37.227 25.0287 37.6535 21.876C38.08 18.7234 36.6002 15.9207 34.3483 15.6161C32.0964 15.3114 29.9252 17.6202 29.4987 20.7728C29.0722 23.9255 30.552 26.7282 32.8039 27.0328Z" stroke="#34495E" stroke-width="2" stroke-miterlimit="10"/>
<path d="M23.8335 25.8193C22.4712 24.0307 22.8645 20.7058 19.6025 20.2645C16.3406 19.8232 15.8993 23.0852 14.0477 24.4955C12.1961 25.9058 7.28799 25.3564 6.75161 29.3213C6.44691 31.5737 8.02507 33.6456 10.2774 33.9503C12.1645 34.2056 16.5066 33.1322 17.8374 33.3122C19.1683 33.4923 23.0691 35.6808 24.9561 35.9361C27.2085 36.2408 29.2805 34.6626 29.5852 32.4103C30.0911 28.6705 25.1959 27.608 23.8335 25.8193Z" stroke="#34495E" stroke-width="2" stroke-miterlimit="10"/>
</svg>
