<svg width="140" height="140" viewBox="0 0 140 140" fill="none" xmlns="http://www.w3.org/2000/svg">
<path d="M102.637 88.7797C102.637 88.7797 108.336 83.0813 114.341 84.7766C120.345 86.4719 124.195 89.5453 124.655 95.8672C125.114 102.189 123.605 106.914 118.803 110.031C112.645 114.034 105.252 111.42 105.252 111.42L102.637 88.7797Z" fill="#ECF0F2"/>
<path d="M65.8328 46.5937C65.8328 46.5937 70.2953 36.8922 69.9891 23.8C69.6828 10.7078 66.7516 3.78435 60.1891 4.03592C53.0031 4.32029 50.7719 15.9031 50.9031 25.4953C51.0562 37.1984 55.3219 46.025 55.3219 46.025L65.8328 46.5937Z" fill="#A8A8A8"/>
<path d="M51.0562 85.0281L40.0749 85.9469C40.0749 85.9469 40.4359 87.0734 40.3265 88.1016C40.2281 89.1297 39.9656 91.6891 39.9656 91.6891L53.8234 102.572L80.2046 87.8938L73.1171 83.0703L51.0562 85.0281Z" fill="#A8A8A8"/>
<path d="M21.2844 71.039C21.0078 71.0387 20.7416 70.9337 20.5393 70.745C20.3371 70.5563 20.2139 70.298 20.1945 70.0221C20.1751 69.7461 20.2609 69.4731 20.4347 69.258C20.6085 69.0428 20.8574 68.9015 21.1312 68.8625C21.2515 68.8406 24.0953 68.4469 27.2015 68.3375C30.6359 68.2281 31.5547 68.1953 34.5297 68.764C35.1203 68.8734 35.514 69.4531 35.3937 70.0437C35.2734 70.6344 34.7047 71.0172 34.114 70.9078C31.3906 70.3828 30.6031 70.4047 27.2781 70.514C24.2922 70.6125 21.4703 71.0172 21.4375 71.0172C21.3828 71.0281 21.339 71.039 21.2844 71.039Z" fill="#8E9395"/>
<path d="M20.1578 78.6297C19.6656 78.6297 19.2172 78.2906 19.0969 77.7984C18.9547 77.2078 19.3156 76.6172 19.9063 76.475C20.0594 76.4313 23.7563 75.5344 26.0312 75.1297C28.2953 74.7141 32.3859 74.2219 32.5609 74.2C32.7035 74.1801 32.8487 74.1892 32.9877 74.2267C33.1267 74.2641 33.2567 74.3292 33.37 74.418C33.4833 74.5068 33.5776 74.6175 33.6472 74.7436C33.7167 74.8696 33.7602 75.0084 33.775 75.1516C33.7938 75.294 33.7839 75.4387 33.746 75.5773C33.7082 75.7159 33.643 75.8455 33.5544 75.9586C33.4658 76.0717 33.3555 76.1659 33.2299 76.2358C33.1044 76.3057 32.9662 76.3498 32.8234 76.3656C32.7797 76.3656 28.6234 76.8797 26.425 77.2844C24.2266 77.6891 20.4641 78.5969 20.4313 78.6078C20.3219 78.6188 20.2453 78.6297 20.1578 78.6297Z" fill="#8E9395"/>
<path d="M88.5171 94.8828L49.8203 119.219C49.8203 119.219 41.814 128.253 43.6078 130.156C44.5593 131.163 48.3 132.059 51.5593 131.338C56.2296 130.309 60.2875 120.4 60.2875 120.4C60.2875 120.4 58.2312 134.466 61.414 135.078C64.5968 135.691 69.2125 134.925 71.2687 131.13C73.325 127.334 74.0359 122.708 75.8843 120.761C77.7328 118.814 79.3734 117.37 79.3734 117.37C79.3734 117.37 80.4015 118.606 81.014 119.427C81.6265 120.247 82.764 121.373 82.764 121.373C82.764 121.373 77.9625 124.348 76.3 126.711C74.6046 129.128 74.9546 131.983 77.4265 132.978C81.014 134.411 96.5234 128.155 96.5234 128.155L93.439 93.7672L88.5171 94.8828Z" fill="#A8A8A8"/>
<path d="M82.5672 71.6844C82.5672 71.6844 83.0812 67.9875 82.3593 64.5969C81.6375 61.2063 79.5922 57.3125 79.5922 57.3125C79.5922 57.3125 87.1937 54.4359 92.6297 49.5141C98.6672 44.0453 107.614 33.8078 108.434 25.3859C109.255 16.9641 104.223 9.37344 90.9781 17.3797C77.7328 25.3859 68.0968 45.2047 68.0968 45.2047C68.0968 45.2047 57.6297 40.7859 49.1093 45.4125C40.589 50.0391 36.0718 61.9391 35.6562 62.7594C35.2406 63.5797 29.9687 65.975 29.2906 73.2266C28.6234 80.4125 32.6375 84.4703 38.6312 86.0563C42.8093 87.1609 46.6375 86.2641 46.6375 86.2641C46.6375 86.2641 49.8203 89.8516 58.0343 89.7531C66.2484 89.6547 73.0187 85.3344 73.0187 85.3344C73.0187 85.3344 71.4765 91.1859 64.0828 94.3688C58.5375 96.7531 51.7672 96.425 46.8343 94.2703C41.9015 92.1156 40.1625 89.6547 40.1625 89.6547C40.1625 89.6547 38.4125 97.6609 40.1625 102.484C41.9125 107.308 45.2922 113.98 45.0843 119.011C44.8765 124.042 41.65 127.739 43.2359 129.784C44.1218 130.933 47.775 131.895 50.6297 128.866C55.4531 123.736 55.2672 117.928 56.9953 117.677C60.5828 117.162 58.8437 127.63 58.7453 129.784C58.6468 131.939 58.3406 134.662 60.6922 135.023C65.7234 135.789 66.5437 133.897 68.6984 128.866C70.8531 123.834 70.6015 121.22 72.8 118.191C74.5937 115.73 77.6234 114.089 77.6234 114.089C77.6234 114.089 77.0546 107.264 79.3187 103.666C81.5718 100.078 86.0453 97.2453 89.3265 98.4813C92.6078 99.7172 85.3781 100.581 83.0156 105.722C81.2875 109.484 81.6265 113.367 84.0984 116.036C86.5593 118.705 89.5343 120.958 89.5343 120.958C89.5343 120.958 77.7656 125.202 76.7047 129.533C75.939 132.661 77.2187 134.105 84.4047 133.383C91.5906 132.661 100.723 130.2 104.322 125.683C107.909 121.166 112.503 106.356 108.686 95.55C105.602 86.8219 103.403 82.9719 95.4953 77.3281C87.5984 71.6844 82.5672 71.6844 82.5672 71.6844Z" fill="#DFDFDF"/>
<path d="M76.4094 48.0813C74.4844 46.0906 77.8422 39.0469 85.4438 30.9422C93.0453 22.8375 98.2734 20.2672 100.844 22.1156C103.414 23.9641 99.7172 31.8719 92.4219 39.5719C86.3844 45.9375 79.5922 51.3625 76.4094 48.0813Z" fill="#FFB0B1"/>
<path d="M52.1281 47.6656C54.9718 48.2781 52.5109 52.4344 50.1265 56.4375C47.7422 60.4406 45.9703 62.5188 46.5062 64.4438C47.0422 66.3688 51.1984 70.0656 50.9687 74.4516C50.739 78.8375 47.0422 83.8469 40.1187 83.3C33.1953 82.7531 30.4172 77.4485 31.5765 71.6735C32.4953 67.1016 37.1984 64.9797 38.4234 62.7375C39.6593 60.5063 41.6937 56.7547 43.8156 53.6485C46.8234 49.2844 49.2734 47.0531 52.1281 47.6656Z" fill="white"/>
<path d="M65.8882 64.703C66.1686 61.8475 64.6999 59.3661 62.6078 59.1607C60.5157 58.9553 58.5925 61.1037 58.3122 63.9592C58.0318 66.8148 59.5005 69.2962 61.5926 69.5016C63.6847 69.707 65.6079 67.5586 65.8882 64.703Z" fill="#2F3030"/>
<path d="M37.8656 69.1688C37.8656 69.1688 41.2999 66.3469 42.6343 67.7359C43.9687 69.125 38.5765 72.4609 38.5765 72.4609C38.5765 72.4609 38.0624 74.9766 39.6046 75.2281C41.1468 75.4797 41.3546 72.1984 43.039 73.0734C44.7343 73.9484 43.1921 78.3125 40.2171 78.3563C38.4453 78.3891 37.3953 77.0766 37.3953 77.0766C37.3953 77.0766 36.9249 78.05 35.339 77.8969C32.7249 77.6453 31.489 72.3406 33.4359 72.4062C34.9781 72.4609 34.0484 74.9219 35.4921 74.9219C37.1328 74.9219 36.4656 72.0016 36.4656 72.0016C36.4656 72.0016 32.8781 68.25 34.464 66.9156C36.0718 65.5813 37.8656 69.1688 37.8656 69.1688Z" fill="#2F3030"/>
<path d="M61.8297 75.7531C61.6984 75.7531 61.5781 75.7313 61.4469 75.6875C61.4031 75.6766 57.4875 74.2219 54.9719 73.675L49.0219 72.3953C48.4313 72.2641 48.0594 71.6844 48.1797 71.0938C48.3 70.5031 48.8906 70.1313 49.4813 70.2516L55.4313 71.5313C58.1 72.111 62.0375 73.5656 62.2016 73.6313C62.7703 73.8391 63.0547 74.4735 62.8469 75.0422C62.772 75.2516 62.6339 75.4325 62.4516 75.5599C62.2694 75.6872 62.052 75.7548 61.8297 75.7531Z" fill="#8E9395"/>
<path d="M60.5938 83.0484C60.3969 83.0484 60.2 82.9937 60.0141 82.8844C59.9813 82.8625 56.6125 80.7734 53.4954 79.0672C51.5508 78.0042 49.5499 77.0476 47.5016 76.2016C47.2333 76.0928 47.0192 75.8819 46.9063 75.6152C46.7935 75.3486 46.7913 75.048 46.9 74.7797C47.0088 74.5114 47.2197 74.2972 47.4864 74.1844C47.7531 74.0716 48.0536 74.0693 48.3219 74.1781C48.4422 74.2219 51.3407 75.4031 54.5454 77.1641C57.7172 78.9031 61.1297 81.025 61.1625 81.0469C61.6766 81.3641 61.8297 82.0422 61.5126 82.5563C61.3266 82.8625 60.9657 83.0484 60.5938 83.0484Z" fill="#8E9395"/>
</svg>
