<svg xmlns="http://www.w3.org/2000/svg" fill="none" viewBox="0 3.72 37.28 32.03">
<path d="M9.90625 19.3125C11.5458 19.3125 12.875 17.4517 12.875 15.1562C12.875 12.8608 11.5458 11 9.90625 11C8.26665 11 6.9375 12.8608 6.9375 15.1562C6.9375 17.4517 8.26665 19.3125 9.90625 19.3125Z" stroke="white" stroke-width="2" stroke-miterlimit="10"/>
<path d="M18.2188 19.3125C19.8583 19.3125 21.1875 17.4517 21.1875 15.1562C21.1875 12.8608 19.8583 11 18.2188 11C16.5792 11 15.25 12.8608 15.25 15.1562C15.25 17.4517 16.5792 19.3125 18.2188 19.3125Z" stroke="white" stroke-width="2" stroke-miterlimit="10"/>
<path d="M3.96875 27.625C5.60835 27.625 6.9375 25.7642 6.9375 23.4688C6.9375 21.1733 5.60835 19.3125 3.96875 19.3125C2.32915 19.3125 1 21.1733 1 23.4688C1 25.7642 2.32915 27.625 3.96875 27.625Z" stroke="white" stroke-width="2" stroke-miterlimit="10"/>
<path d="M24.1562 27.625C25.7958 27.625 27.125 25.7642 27.125 23.4688C27.125 21.1733 25.7958 19.3125 24.1562 19.3125C22.5167 19.3125 21.1875 21.1733 21.1875 23.4688C21.1875 25.7642 22.5167 27.625 24.1562 27.625Z" stroke="white" stroke-width="2" stroke-miterlimit="10"/>
<path d="M17.625 27.625C16.4779 26.4779 16.4375 24.0625 14.0625 24.0625C11.6875 24.0625 11.6875 26.4375 10.5 27.625C9.3125 28.8125 5.75 28.8944 5.75 31.7812C5.75 33.4212 7.07881 34.75 8.71875 34.75C10.0927 34.75 13.0935 33.5625 14.0625 33.5625C15.0315 33.5625 18.0323 34.75 19.4062 34.75C21.0462 34.75 22.375 33.4212 22.375 31.7812C22.375 29.0583 18.7721 28.7721 17.625 27.625Z" stroke="white" stroke-width="2" stroke-miterlimit="10"/>
<path d="M26 10H36" stroke="white" stroke-width="2.56" stroke-linecap="round" stroke-linejoin="round"/>
<path d="M31 5V15" stroke="white" stroke-width="2.56" stroke-linecap="round" stroke-linejoin="round"/>
</svg>