<svg width="30" height="30" viewBox="0 0 30 30" fill="none" xmlns="http://www.w3.org/2000/svg">
<path d="M28.3335 28.3334V20.0001H27.3651M27.3651 20.0001C26.2571 22.7349 24.2735 25.0252 21.7249 26.5122C19.1762 27.9993 16.2064 28.5993 13.2803 28.2182C10.3542 27.8371 7.63714 26.4965 5.55436 24.4063C3.47159 22.316 2.14073 19.5942 1.77014 16.6667M27.3651 20.0001H20.0001" stroke="white" stroke-width="2" stroke-linecap="round" stroke-linejoin="round"/>
<path d="M1.66675 1.66671V10H2.63675M2.63675 10C3.74316 7.26359 5.72622 4.97156 8.27513 3.48314C10.824 1.99473 13.7948 1.39406 16.7217 1.77528C19.6486 2.15649 22.3664 3.49803 24.449 5.58967C26.5317 7.68131 27.8615 10.4048 28.2301 13.3334M2.63675 10H10.0001" stroke="white" stroke-width="2" stroke-linecap="round" stroke-linejoin="round"/>
</svg>
