<svg width="38" height="38" viewBox="0 0 38 38" fill="none" xmlns="http://www.w3.org/2000/svg">
<path d="M25.111 4.30837C30.2348 9.43213 30.8194 17.457 26.7006 23.2339L37.2459 33.7788C38.2033 34.7362 38.2033 36.2884 37.2459 37.2459C36.2885 38.2033 34.7363 38.2033 33.7789 37.2459L23.2329 26.7012L22.9322 26.91C17.1803 30.7978 9.34349 30.1461 4.30836 25.111C-1.43612 19.3665 -1.43612 10.0529 4.30836 4.30837C10.0528 -1.43612 19.3665 -1.43612 25.111 4.30837ZM15.2633 28.1822L15.2212 28.1839C15.1006 28.1885 14.9798 28.1914 14.8591 28.1927C14.9951 28.1912 15.1292 28.1877 15.2633 28.1822ZM13.3312 28.1233L13.4103 28.1312C13.5594 28.1455 13.7086 28.1574 13.858 28.1668C13.6821 28.1557 13.5065 28.1412 13.3312 28.1233ZM12.0421 27.9285L12.3295 27.983C12.4929 28.0122 12.6567 28.0383 12.8209 28.0614C12.5605 28.0247 12.3007 27.9804 12.0421 27.9285ZM17.1359 27.9747L17.0227 27.9948C16.9781 28.0025 16.9336 28.01 16.889 28.0173C16.9712 28.0039 17.0536 27.9897 17.1359 27.9747ZM10.2689 27.4445L10.5587 27.5417C10.986 27.6795 11.4187 27.7955 11.8552 27.8896C11.3198 27.7742 10.79 27.6258 10.2689 27.4445ZM18.4081 27.679L18.0891 27.7654C17.9131 27.8108 17.7363 27.8526 17.559 27.8907C17.844 27.8294 18.1271 27.7588 18.4081 27.679ZM19.664 27.2541C19.6041 27.2777 19.544 27.3009 19.4839 27.3236L19.664 27.2541ZM9.36257 27.0919L9.5351 27.1649C9.47753 27.141 9.41986 27.1167 9.36257 27.0919ZM20.3344 26.9684L20.1629 27.0456C20.0696 27.0868 19.9761 27.1269 19.8822 27.1659C20.0336 27.103 20.1844 27.0372 20.3344 26.9684ZM8.68966 26.7792L8.84932 26.8575L8.86264 26.8639C8.80484 26.8361 8.74714 26.8079 8.68966 26.7792ZM7.72467 26.247L7.86413 26.3304C8.05506 26.4431 8.24826 26.5506 8.44336 26.6531C8.20083 26.5257 7.961 26.3903 7.72467 26.247ZM22.6066 25.6417L22.432 25.766C22.3288 25.8382 22.2249 25.9088 22.1203 25.9778L22.1394 25.9652C22.2969 25.861 22.4526 25.7532 22.6066 25.6417ZM6.90871 6.90869C2.60035 11.2171 2.60035 18.2023 6.90871 22.5107C11.2171 26.819 18.2023 26.819 22.5107 22.5107C26.819 18.2023 26.819 11.2171 22.5107 6.90869C18.2023 2.60033 11.2171 2.60033 6.90871 6.90869ZM23.3378 25.0727L23.041 25.3135L23.0616 25.2972L23.3378 25.0727ZM5.52115 24.5784L5.43496 24.4973C5.69328 24.7423 5.95893 24.9751 6.23117 25.1958C5.98902 24.9995 5.7522 24.7938 5.52115 24.5784ZM5.1752 24.2442L5.43496 24.4973L5.44828 24.5098L5.1752 24.2442Z" fill="white"/>
</svg>
